HIERARCHY
ROOT Hips
{
	OFFSET 0.000000 87.230942 0.000000
	CHANNELS 6 Xposition Yposition Zposition Xrotation Yrotation Zrotation
	JOINT Pelvis
	{
		OFFSET 0.000000 0.000000 0.000000
		CHANNELS 3 Xrotation Yrotation Zrotation
		JOINT LeftUpLeg
		{
			OFFSET 12.017000 -9.376404 -2.439400
			CHANNELS 3 Xrotation Yrotation Zrotation
			JOINT LeftLeg
			{
				OFFSET -0.007312 -32.846973 2.110600
				CHANNELS 3 Xrotation Yrotation Zrotation
				JOINT LeftFoot
				{
					OFFSET 0.007312 -32.065170 -0.570400
					CHANNELS 3 Xrotation Yrotation Zrotation
					JOINT LeftToeBase
					{
						OFFSET 0.728300 -11.045900 13.180700
						CHANNELS 3 Xrotation Yrotation Zrotation
						End Site
						{
							OFFSET 0.000000 17.212589 0.000000
						}
					}
				}
				JOINT LeftPantLeg
				{
					OFFSET 0.002788 -16.709013 -3.143600
					CHANNELS 3 Xrotation Yrotation Zrotation
					End Site
					{
						OFFSET -0.605125 24.528742 0.000000
					}
				}
			}
			JOINT Left_Butt
			{
				OFFSET -6.630234 1.326584 -3.183700
				CHANNELS 3 Xrotation Yrotation Zrotation
				End Site
				{
					OFFSET -0.498041 20.188049 0.000000
				}
			}
		}
		JOINT RightUpLeg
		{
			OFFSET -11.717000 -9.376404 -2.439400
			CHANNELS 3 Xrotation Yrotation Zrotation
			JOINT RightLeg
			{
				OFFSET -0.003241 -32.846912 2.110600
				CHANNELS 3 Xrotation Yrotation Zrotation
				JOINT RightFoot
				{
					OFFSET 0.003241 -32.065136 -0.570500
					CHANNELS 3 Xrotation Yrotation Zrotation
					JOINT RightToeBase
					{
						OFFSET -0.728300 -11.045901 13.180700
						CHANNELS 3 Xrotation Yrotation Zrotation
						End Site
						{
							OFFSET 0.000000 17.212593 0.000000
						}
					}
				}
				JOINT RightPantLeg
				{
					OFFSET 0.008142 -16.708982 -3.143700
					CHANNELS 3 Xrotation Yrotation Zrotation
					End Site
					{
						OFFSET 0.605088 24.528715 0.000000
					}
				}
			}
			JOINT Right_Butt
			{
				OFFSET 6.630732 1.326584 -3.183700
				CHANNELS 3 Xrotation Yrotation Zrotation
				End Site
				{
					OFFSET 0.498015 20.188240 0.000000
				}
			}
		}
	}
	JOINT Spine
	{
		OFFSET -0.062400 7.848404 3.918300
		CHANNELS 3 Xrotation Yrotation Zrotation
		JOINT Spine1
		{
			OFFSET -0.072800 11.422302 0.713400
			CHANNELS 3 Xrotation Yrotation Zrotation
			JOINT Spine2
			{
				OFFSET -0.083200 13.054001 -1.931600
				CHANNELS 3 Xrotation Yrotation Zrotation
				JOINT Neck
				{
					OFFSET -0.092200 14.121796 -5.138800
					CHANNELS 3 Xrotation Yrotation Zrotation
					JOINT Head
					{
						OFFSET 0.000200 10.447403 -0.842000
						CHANNELS 3 Xrotation Yrotation Zrotation
						JOINT Visor
						{
							OFFSET 0.457100 25.671204 16.550400
							CHANNELS 3 Xrotation Yrotation Zrotation
							End Site
							{
								OFFSET 0.000000 26.061493 0.000000
							}
						}
						JOINT HairMidA
						{
							OFFSET 0.459400 31.585403 8.437400
							CHANNELS 3 Xrotation Yrotation Zrotation
							End Site
							{
								OFFSET 0.000000 26.061493 0.000000
							}
						}
						JOINT HairMidB
						{
							OFFSET 0.464000 33.309204 -8.389700
							CHANNELS 3 Xrotation Yrotation Zrotation
							End Site
							{
								OFFSET 0.000000 26.061493 0.000000
							}
						}
						JOINT HairMidC
						{
							OFFSET 0.466600 27.991196 -17.375099
							CHANNELS 3 Xrotation Yrotation Zrotation
							End Site
							{
								OFFSET 0.000000 26.061493 0.000000
							}
						}
						JOINT HairMidD
						{
							OFFSET 0.467700 17.888092 -21.169500
							CHANNELS 3 Xrotation Yrotation Zrotation
							End Site
							{
								OFFSET 0.000000 26.061493 0.000000
							}
						}
						JOINT HairMidE
						{
							OFFSET 5.325700 3.514603 -14.369699
							CHANNELS 3 Xrotation Yrotation Zrotation
							End Site
							{
								OFFSET 0.000000 26.061493 0.000000
							}
						}
						JOINT HairMidF
						{
							OFFSET -4.394100 3.514603 -14.372400
							CHANNELS 3 Xrotation Yrotation Zrotation
							End Site
							{
								OFFSET 0.000000 26.061493 0.000000
							}
						}
						JOINT HairLeftA
						{
							OFFSET 15.319900 25.746506 2.623300
							CHANNELS 3 Xrotation Yrotation Zrotation
							End Site
							{
								OFFSET 0.000000 26.061493 0.000000
							}
						}
						JOINT HairLeftB
						{
							OFFSET 12.619500 29.289398 -8.731499
							CHANNELS 3 Xrotation Yrotation Zrotation
							End Site
							{
								OFFSET 0.000000 26.061493 0.000000
							}
						}
						JOINT HairLeftC
						{
							OFFSET 15.714800 15.959900 2.909800
							CHANNELS 3 Xrotation Yrotation Zrotation
							End Site
							{
								OFFSET 0.000000 26.061493 0.000000
							}
						}
						JOINT HairLeftD
						{
							OFFSET 16.101700 18.437408 -7.553200
							CHANNELS 3 Xrotation Yrotation Zrotation
							End Site
							{
								OFFSET 0.000000 26.061493 0.000000
							}
						}
						JOINT HairLeftE
						{
							OFFSET 9.731900 17.915009 -18.316799
							CHANNELS 3 Xrotation Yrotation Zrotation
							End Site
							{
								OFFSET 0.000000 26.061493 0.000000
							}
						}
						JOINT HairLeftF
						{
							OFFSET 11.204300 4.953598 -9.668100
							CHANNELS 3 Xrotation Yrotation Zrotation
							End Site
							{
								OFFSET 0.000000 26.061493 0.000000
							}
						}
						JOINT HairRightA
						{
							OFFSET -14.397900 25.746307 2.615100
							CHANNELS 3 Xrotation Yrotation Zrotation
							End Site
							{
								OFFSET 0.000000 26.061493 0.000000
							}
						}
						JOINT HairRightB
						{
							OFFSET -11.691200 29.289200 -8.738199
							CHANNELS 3 Xrotation Yrotation Zrotation
							End Site
							{
								OFFSET 0.000000 26.061493 0.000000
							}
						}
						JOINT HairRightC
						{
							OFFSET -14.792900 15.959702 2.901400
							CHANNELS 3 Xrotation Yrotation Zrotation
							End Site
							{
								OFFSET 0.000000 26.061493 0.000000
							}
						}
						JOINT HairRightD
						{
							OFFSET -15.174000 18.437195 -7.561900
							CHANNELS 3 Xrotation Yrotation Zrotation
							End Site
							{
								OFFSET 0.000000 26.061493 0.000000
							}
						}
						JOINT HairRightE
						{
							OFFSET -8.798200 17.914902 -18.322001
							CHANNELS 3 Xrotation Yrotation Zrotation
							End Site
							{
								OFFSET 0.000000 26.061493 0.000000
							}
						}
						JOINT HairRightF
						{
							OFFSET -10.275200 4.953506 -9.674099
							CHANNELS 3 Xrotation Yrotation Zrotation
							End Site
							{
								OFFSET 0.000000 26.061493 0.000000
							}
						}
					}
				}
				JOINT LeftShoulder
				{
					OFFSET 5.133500 7.341202 -1.867600
					CHANNELS 3 Xrotation Yrotation Zrotation
					JOINT LeftArm
					{
						OFFSET 8.072663 0.936867 -2.176600
						CHANNELS 3 Xrotation Yrotation Zrotation
						JOINT LeftForeArm
						{
							OFFSET 31.271999 0.000000 0.000000
							CHANNELS 3 Xrotation Yrotation Zrotation
							JOINT LeftHand
							{
								OFFSET 31.771030 0.000000 0.000000
								CHANNELS 3 Xrotation Yrotation Zrotation
								JOINT LeftHandThumb1
								{
									OFFSET 2.886520 -2.557846 4.416640
									CHANNELS 3 Xrotation Yrotation Zrotation
									JOINT LeftHandThumb2
									{
										OFFSET 2.371025 -1.368912 1.368911
										CHANNELS 3 Xrotation Yrotation Zrotation
										JOINT LeftHandThumb3
										{
											OFFSET 2.243378 -1.295212 1.295213
											CHANNELS 3 Xrotation Yrotation Zrotation
											End Site
											{
												OFFSET -0.332611 2.876945 0.020015
											}
										}
									}
								}
								JOINT LeftHandIndex1
								{
									OFFSET 8.568985 -0.641945 3.119977
									CHANNELS 3 Xrotation Yrotation Zrotation
									JOINT LeftHandIndex2
									{
										OFFSET 3.348503 0.000000 0.000000
										CHANNELS 3 Xrotation Yrotation Zrotation
										JOINT LeftHandIndex3
										{
											OFFSET 3.314552 0.000000 0.000000
											CHANNELS 3 Xrotation Yrotation Zrotation
											End Site
											{
												OFFSET -1.032898 3.075485 0.678796
											}
										}
									}
								}
								JOINT LeftHandMiddle1
								{
									OFFSET 8.124603 0.000000 0.000000
									CHANNELS 3 Xrotation Yrotation Zrotation
									JOINT LeftHandMiddle2
									{
										OFFSET 4.166275 0.000000 0.000000
										CHANNELS 3 Xrotation Yrotation Zrotation
										JOINT LeftHandMiddle3
										{
											OFFSET 3.018135 0.000000 0.000000
											CHANNELS 3 Xrotation Yrotation Zrotation
											End Site
											{
												OFFSET -1.032700 2.767982 0.617226
											}
										}
									}
								}
								JOINT LeftHandRing1
								{
									OFFSET 8.571686 -0.031357 -2.884048
									CHANNELS 3 Xrotation Yrotation Zrotation
									JOINT LeftHandRing2
									{
										OFFSET 3.671181 0.000000 0.000000
										CHANNELS 3 Xrotation Yrotation Zrotation
										JOINT LeftHandRing3
										{
											OFFSET 2.728851 0.000000 0.000000
											CHANNELS 3 Xrotation Yrotation Zrotation
											End Site
											{
												OFFSET -0.815796 2.539223 0.577389
											}
										}
									}
								}
								JOINT LeftHandPinky1
								{
									OFFSET 7.854515 -0.675232 -5.213020
									CHANNELS 3 Xrotation Yrotation Zrotation
									JOINT LeftHandPinky2
									{
										OFFSET 3.068596 0.000000 0.000000
										CHANNELS 3 Xrotation Yrotation Zrotation
										JOINT LeftHandPinky3
										{
											OFFSET 2.396042 0.000000 0.000000
											CHANNELS 3 Xrotation Yrotation Zrotation
											End Site
											{
												OFFSET -0.524597 2.267998 0.567429
											}
										}
									}
								}
							}
							JOINT LeftSleeve
							{
								OFFSET 19.684509 -0.200119 0.476146
								CHANNELS 3 Xrotation Yrotation Zrotation
								End Site
								{
									OFFSET -0.031017 25.731133 -0.002868
								}
							}
						}
					}
				}
				JOINT RightShoulder
				{
					OFFSET -4.395900 7.341202 -1.870200
					CHANNELS 3 Xrotation Yrotation Zrotation
					JOINT RightArm
					{
						OFFSET -8.071453 0.936867 -2.181100
						CHANNELS 3 Xrotation Yrotation Zrotation
						JOINT RightForeArm
						{
							OFFSET -31.272011 0.000000 0.000000
							CHANNELS 3 Xrotation Yrotation Zrotation
							JOINT RightHand
							{
								OFFSET -31.771019 0.000000 0.000000
								CHANNELS 3 Xrotation Yrotation Zrotation
								JOINT RightHandThumb1
								{
									OFFSET -2.886520 -2.557808 4.416626
									CHANNELS 3 Xrotation Yrotation Zrotation
									JOINT RightHandThumb2
									{
										OFFSET -2.371056 -1.368927 1.368928
										CHANNELS 3 Xrotation Yrotation Zrotation
										JOINT RightHandThumb3
										{
											OFFSET -2.243362 -1.295204 1.295206
											CHANNELS 3 Xrotation Yrotation Zrotation
											End Site
											{
												OFFSET 0.332642 2.876938 0.020047
											}
										}
									}
								}
								JOINT RightHandIndex1
								{
									OFFSET -8.568993 -0.641953 3.120017
									CHANNELS 3 Xrotation Yrotation Zrotation
									JOINT RightHandIndex2
									{
										OFFSET -3.348518 0.000000 0.000000
										CHANNELS 3 Xrotation Yrotation Zrotation
										JOINT RightHandIndex3
										{
											OFFSET -3.314552 0.000000 0.000000
											CHANNELS 3 Xrotation Yrotation Zrotation
											End Site
											{
												OFFSET 1.032898 3.075478 0.678804
											}
										}
									}
								}
								JOINT RightHandMiddle1
								{
									OFFSET -8.124588 0.000000 0.000000
									CHANNELS 3 Xrotation Yrotation Zrotation
									JOINT RightHandMiddle2
									{
										OFFSET -4.166275 0.000000 0.000000
										CHANNELS 3 Xrotation Yrotation Zrotation
										JOINT RightHandMiddle3
										{
											OFFSET -3.018097 0.000000 0.000000
											CHANNELS 3 Xrotation Yrotation Zrotation
											End Site
											{
												OFFSET 1.032700 2.767937 0.617197
											}
										}
									}
								}
								JOINT RightHandRing1
								{
									OFFSET -8.571747 -0.031349 -2.884061
									CHANNELS 3 Xrotation Yrotation Zrotation
									JOINT RightHandRing2
									{
										OFFSET -3.671204 0.000000 0.000000
										CHANNELS 3 Xrotation Yrotation Zrotation
										JOINT RightHandRing3
										{
											OFFSET -2.728874 0.000000 0.000000
											CHANNELS 3 Xrotation Yrotation Zrotation
											End Site
											{
												OFFSET 0.815804 2.539261 0.577413
											}
										}
									}
								}
								JOINT RightHandPinky1
								{
									OFFSET -7.854561 -0.675247 -5.212970
									CHANNELS 3 Xrotation Yrotation Zrotation
									JOINT RightHandPinky2
									{
										OFFSET -3.068550 0.000000 0.000000
										CHANNELS 3 Xrotation Yrotation Zrotation
										JOINT RightHandPinky3
										{
											OFFSET -2.395981 0.000000 0.000000
											CHANNELS 3 Xrotation Yrotation Zrotation
											End Site
											{
												OFFSET 0.524605 2.267952 0.567413
											}
										}
									}
								}
							}
							JOINT RightSleeve
							{
								OFFSET -19.684753 -0.200165 0.476065
								CHANNELS 3 Xrotation Yrotation Zrotation
								End Site
								{
									OFFSET 0.031342 25.731255 -0.002917
								}
							}
						}
					}
				}
				JOINT Hood
				{
					OFFSET 0.369700 14.447800 -5.317800
					CHANNELS 3 Xrotation Yrotation Zrotation
					JOINT Hood1
					{
						OFFSET 0.001700 -5.553802 -5.895100
						CHANNELS 3 Xrotation Yrotation Zrotation
						JOINT Hood2
						{
							OFFSET -0.000200 -8.380501 0.763600
							CHANNELS 3 Xrotation Yrotation Zrotation
							End Site
							{
								OFFSET 0.000000 8.415215 0.000000
							}
						}
					}
				}
				JOINT Left_Breast
				{
					OFFSET 5.682500 3.120102 3.188800
					CHANNELS 3 Xrotation Yrotation Zrotation
					End Site
					{
						OFFSET 0.000000 10.528564 0.000000
					}
				}
				JOINT Right_Breast
				{
					OFFSET -4.947600 3.120102 3.185900
					CHANNELS 3 Xrotation Yrotation Zrotation
					End Site
					{
						OFFSET 0.000000 10.528564 0.000000
					}
				}
				JOINT Whistle
				{
					OFFSET 0.368200 11.471298 0.095400
					CHANNELS 3 Xrotation Yrotation Zrotation
					JOINT Whistle1
					{
						OFFSET -0.002000 -6.349899 7.479800
						CHANNELS 3 Xrotation Yrotation Zrotation
						JOINT Whistle2
						{
							OFFSET -0.001300 -8.217598 4.717600
							CHANNELS 3 Xrotation Yrotation Zrotation
							End Site
							{
								OFFSET 0.000000 9.475479 0.000000
							}
						}
					}
				}
			}
		}
		JOINT Belly
		{
			OFFSET 0.212400 1.593002 3.163700
			CHANNELS 3 Xrotation Yrotation Zrotation
			End Site
			{
				OFFSET 0.000000 7.496635 0.000000
			}
		}
	}
	JOINT FitGrandmaFacialAnim_Joint
	{
		OFFSET 1.150000 -86.211197 -1.220100
		CHANNELS 3 Xrotation Yrotation Zrotation
		End Site
		{
			OFFSET 0.000000 31.666618 0.000000
		}
	}
}
MOTION
Frames: 4
Frame Time: 0.016667
-1.590958 79.305229 46.204247 29.852137 6.520280 -18.605533 0.000001 -0.000001 0.000001 -66.867948 -1.724749 12.709354 39.208240 7.329956 -7.381372 -3.614625 -0.096093 8.519990 -0.000000 -0.000000 -0.000000 0.000000 -0.000000 -0.000000 -0.000001 0.000000 0.000001 -3.490347 -25.698833 -17.513676 79.716374 -3.001552 -2.847515 21.978818 0.752669 5.341536 -0.000003 0.000004 -0.000001 0.000000 0.000000 -0.000000 -0.000002 -0.000001 -0.000005 5.950039 11.687254 -7.450468 11.648221 11.205354 -7.545692 11.698391 11.155152 -7.567851 -9.883405 -7.149090 7.463518 -30.256334 -33.917668 18.385676 0.000000 -0.000001 -0.000000 0.000000 -0.000001 -0.000000 0.000000 -0.000001 -0.000000 0.000000 -0.000001 -0.000000 0.000000 -0.000001 -0.000000 0.000000 -0.000001 -0.000000 0.000000 -0.000001 -0.000000 0.000000 -0.000001 -0.000000 0.000000 -0.000001 -0.000000 0.000000 -0.000001 -0.000000 0.000000 -0.000001 -0.000000 0.000000 -0.000001 -0.000000 0.000000 -0.000001 -0.000000 0.000000 -0.000001 -0.000000 0.000000 -0.000001 -0.000000 0.000000 -0.000001 -0.000000 0.000000 -0.000001 -0.000000 0.000000 -0.000001 -0.000000 0.000000 -0.000001 -0.000000 -0.266299 3.848955 2.890090 28.180078 -44.869832 -18.300146 -0.000008 -24.379730 -0.000014 -6.282304 38.817020 -1.221418 -3.708775 -5.344633 -9.285598 10.685387 16.536446 0.020110 -0.000001 -0.000002 0.000002 0.013962 0.439238 -3.642306 0.025875 0.597756 -4.959537 -0.000001 0.000000 -0.000001 0.013831 0.437323 -3.626328 0.026052 0.599665 -4.975534 -0.000001 -0.000001 -0.000001 0.013957 0.439249 -3.642313 0.025890 0.597753 -4.959538 0.000001 0.000002 -0.000001 0.254021 4.486454 -3.142212 0.013181 -3.456770 -5.468403 0.000001 0.000000 0.000000 -0.000001 0.000000 0.000000 4.952146 16.802281 -7.381358 -6.598530 60.118225 21.651611 0.000011 37.609115 -0.000025 -29.432569 -31.795002 -16.154772 31.276478 -0.747351 -0.159468 -3.876768 -9.680800 -4.069536 -0.000000 0.000002 0.000001 0.578522 -2.781500 23.494934 0.464466 -2.503103 21.020985 0.000002 -0.000001 -0.000001 0.578526 -2.781498 23.494935 0.464466 -2.503101 21.020991 0.000002 -0.000001 -0.000004 0.578524 -2.781512 23.494939 0.464467 -2.503100 21.020981 0.000003 -0.000001 0.000002 0.578525 -2.781515 23.494930 0.464464 -2.503094 21.020983 -0.000005 0.000001 -0.000003 -0.000000 0.000000 -0.000001 -0.000002 0.000000 -0.000001 -0.000002 0.000000 -0.000001 -0.000002 0.000000 -0.000001 -0.000002 0.000000 -0.000001 -0.000002 0.000000 -0.000001 -0.000002 0.000000 -0.000003 -0.000002 0.000001 -0.000003 -0.000002 0.000001 -0.000003 -0.000001 0.000000 -0.000000 0.000001 -0.000001 0.000001 
-1.682217 79.307541 46.426739 28.984311 7.023864 -18.483533 -0.000000 -0.000002 0.000004 -66.205652 -1.230842 12.863169 39.983354 6.608373 -7.308343 -4.224785 -0.106235 8.485427 0.000000 -0.000000 -0.000000 -0.000000 0.000002 -0.000000 -0.000003 0.000002 0.000001 -4.699969 -25.368410 -17.009915 77.931536 -2.242275 -2.984315 22.251643 0.579225 4.028653 -0.000002 -0.000001 0.000001 -0.000000 -0.000000 0.000001 0.000003 -0.000000 -0.000000 5.963916 11.019693 -7.767671 11.676780 10.962422 -7.565065 11.760139 10.875358 -7.586994 -9.995536 -7.064442 7.301298 -30.252574 -33.572985 18.432239 0.000002 -0.000000 -0.000000 0.000002 -0.000000 -0.000000 0.000002 -0.000000 -0.000000 0.000002 -0.000000 -0.000000 0.000002 -0.000000 -0.000000 0.000002 -0.000000 -0.000000 0.000002 -0.000000 -0.000000 0.000002 -0.000000 -0.000000 0.000002 -0.000000 -0.000000 0.000002 -0.000000 -0.000000 0.000002 -0.000000 -0.000000 0.000002 -0.000000 -0.000000 0.000002 -0.000000 -0.000000 0.000002 -0.000000 -0.000000 0.000002 -0.000000 -0.000000 0.000002 -0.000000 -0.000000 0.000002 -0.000000 -0.000000 0.000002 -0.000000 -0.000000 0.000002 -0.000000 -0.000000 -0.255785 3.725914 3.215383 28.574281 -46.646009 -14.108382 -0.000011 -23.223239 -0.000013 -8.175374 37.907420 -1.748957 -3.708777 -5.344636 -9.285599 10.685387 16.536446 0.020108 -0.000001 0.000001 -0.000002 0.013965 0.439236 -3.642307 0.025880 0.597754 -4.959534 0.000000 -0.000003 0.000002 0.013835 0.437317 -3.626329 0.026044 0.599668 -4.975540 -0.000001 -0.000004 0.000001 0.013960 0.439243 -3.642306 0.025889 0.597747 -4.959539 0.000002 0.000002 -0.000002 0.254021 4.486452 -3.142211 0.013181 -3.456770 -5.468405 0.000001 0.000000 -0.000001 0.000004 -0.000002 -0.000001 4.755321 16.291743 -6.875287 -6.385750 57.667103 19.002413 0.000021 35.965608 -0.000007 -31.597196 -30.685410 -17.384500 31.221345 -0.795010 -0.187886 -3.869677 -9.704037 -4.071603 -0.000001 0.000001 -0.000000 0.577753 -2.779691 23.478786 0.463241 -2.499902 20.992728 -0.000001 0.000001 -0.000002 0.577752 -2.779696 23.478789 0.463245 -2.499880 20.992730 -0.000001 -0.000001 -0.000002 0.577750 -2.779700 23.478782 0.463255 -2.499889 20.992725 0.000002 -0.000001 -0.000001 0.577755 -2.779715 23.478782 0.463241 -2.499878 20.992735 -0.000005 0.000000 0.000001 -0.000001 0.000001 0.000001 0.000001 -0.000000 -0.000001 0.000001 -0.000000 -0.000001 0.000001 -0.000000 -0.000001 0.000001 -0.000000 -0.000001 0.000001 -0.000000 -0.000001 0.000001 -0.000000 0.000001 -0.000004 0.000000 0.000002 -0.000004 0.000000 0.000002 -0.000000 -0.000003 0.000001 -0.000000 -0.000002 0.000004 
-1.762222 79.324860 46.643532 28.113511 7.516505 -18.380225 0.000002 -0.000001 -0.000000 -65.532059 -0.630432 13.038549 40.669890 5.785663 -7.160626 -4.796794 -0.116279 8.479759 0.000000 -0.000000 -0.000000 -0.000000 -0.000001 -0.000001 0.000002 -0.000001 -0.000001 -5.877820 -24.977635 -16.513352 76.097555 -1.598696 -3.254939 22.455406 0.495829 3.375490 -0.000000 -0.000002 -0.000000 -0.000000 -0.000001 -0.000000 0.000002 -0.000000 0.000001 5.996421 10.326763 -8.099964 11.743715 10.656884 -7.606248 11.860003 10.534739 -7.618959 -10.124070 -6.973863 7.156025 -30.258790 -33.172480 18.493004 -0.000000 -0.000000 -0.000000 -0.000000 -0.000000 -0.000000 -0.000000 -0.000000 -0.000000 -0.000000 -0.000000 -0.000000 -0.000000 -0.000000 -0.000000 -0.000000 -0.000000 -0.000000 -0.000000 -0.000000 -0.000000 -0.000000 -0.000000 -0.000000 -0.000000 -0.000000 -0.000000 -0.000000 -0.000000 -0.000000 -0.000000 -0.000000 -0.000000 -0.000000 -0.000000 -0.000000 -0.000000 -0.000000 -0.000000 -0.000000 -0.000000 -0.000000 -0.000000 -0.000000 -0.000000 -0.000000 -0.000000 -0.000000 -0.000000 -0.000000 -0.000000 -0.000000 -0.000000 -0.000000 -0.000000 -0.000000 -0.000000 -0.246503 3.605293 3.561321 28.114734 -48.438882 -10.572335 0.000002 -21.961918 0.000004 -10.198572 36.602670 -1.666807 -3.708774 -5.344632 -9.285594 10.685384 16.536448 0.020107 0.000001 0.000002 -0.000004 0.013965 0.439233 -3.642306 0.025880 0.597759 -4.959542 0.000003 0.000000 0.000001 0.013832 0.437318 -3.626331 0.026048 0.599668 -4.975538 0.000001 -0.000003 -0.000000 0.013962 0.439244 -3.642309 0.025893 0.597752 -4.959538 0.000002 0.000002 0.000001 0.254020 4.486449 -3.142207 0.013180 -3.456770 -5.468404 -0.000000 -0.000003 -0.000002 0.000002 0.000001 -0.000001 4.570559 15.669525 -6.602636 -6.422808 55.485872 16.577492 -0.000022 34.357566 0.000037 -33.438096 -29.057435 -18.368966 31.163940 -0.844525 -0.217474 -3.862232 -9.728367 -4.073778 0.000002 -0.000000 -0.000003 0.576935 -2.777840 23.461988 0.461893 -2.496428 20.962143 -0.000002 0.000003 0.000000 0.576942 -2.777837 23.461980 0.461901 -2.496418 20.962148 0.000001 0.000001 -0.000001 0.576946 -2.777843 23.461983 0.461892 -2.496418 20.962139 -0.000002 0.000001 -0.000000 0.576943 -2.777858 23.461990 0.461887 -2.496405 20.962141 -0.000001 0.000000 -0.000000 -0.000003 0.000000 -0.000001 0.000002 -0.000000 0.000002 0.000002 -0.000000 0.000002 0.000002 -0.000000 0.000002 0.000002 -0.000000 0.000002 0.000002 -0.000000 0.000002 0.000002 -0.000000 0.000001 -0.000001 0.000001 -0.000001 -0.000001 0.000001 -0.000001 0.000001 -0.000001 0.000002 0.000002 -0.000001 -0.000000 
-1.815584 79.355469 46.860344 27.229575 8.006122 -18.278476 -0.000001 -0.000000 -0.000001 -64.828057 0.046570 13.188080 41.297141 4.924306 -6.919927 -5.354647 -0.128619 8.482761 0.000000 0.000000 -0.000000 0.000000 -0.000000 0.000000 0.000001 -0.000002 -0.000001 -7.037978 -24.525415 -16.043134 74.194678 -1.057648 -3.622129 22.570193 0.460362 3.073923 -0.000000 0.000000 0.000001 -0.000000 -0.000005 0.000000 -0.000000 -0.000002 -0.000004 6.049735 9.592330 -8.441273 11.857631 10.258348 -7.663915 12.006351 10.104661 -7.655104 -10.259063 -6.869445 7.028376 -30.230714 -32.681526 18.611087 0.000000 0.000000 -0.000000 0.000000 0.000000 -0.000000 0.000000 0.000000 -0.000000 0.000000 0.000000 -0.000000 0.000000 0.000000 -0.000000 0.000000 0.000000 -0.000000 0.000000 0.000000 -0.000000 0.000000 0.000000 -0.000000 0.000000 0.000000 -0.000000 0.000000 0.000000 -0.000000 0.000000 0.000000 -0.000000 0.000000 0.000000 -0.000000 0.000000 0.000000 -0.000000 0.000000 0.000000 -0.000000 0.000000 0.000000 -0.000000 0.000000 0.000000 -0.000000 0.000000 0.000000 -0.000000 0.000000 0.000000 -0.000000 0.000000 0.000000 -0.000000 -0.235990 3.479647 3.929621 26.629953 -50.227664 -7.790026 -0.000017 -20.582013 -0.000002 -12.116053 35.063848 -1.214191 -3.708774 -5.344638 -9.285596 10.685382 16.536445 0.020107 -0.000001 -0.000002 -0.000001 0.013966 0.439235 -3.642307 0.025878 0.597757 -4.959534 0.000005 -0.000001 0.000000 0.013836 0.437314 -3.626333 0.026050 0.599665 -4.975532 -0.000002 -0.000003 0.000003 0.013961 0.439242 -3.642311 0.025896 0.597747 -4.959538 -0.000002 0.000003 -0.000001 0.254024 4.486452 -3.142211 0.013177 -3.456763 -5.468407 -0.000002 -0.000000 0.000003 -0.000001 0.000002 -0.000000 4.407066 14.991005 -6.564019 -6.689407 53.585976 14.333852 0.000016 32.841455 0.000003 -34.852000 -27.174389 -18.930479 31.104425 -0.895775 -0.248186 -3.854500 -9.753748 -4.076055 -0.000001 -0.000001 -0.000004 0.576085 -2.775872 23.444544 0.460485 -2.492716 20.929341 0.000001 -0.000001 0.000001 0.576087 -2.775882 23.444542 0.460478 -2.492700 20.929351 0.000001 0.000004 -0.000001 0.576090 -2.775888 23.444541 0.460482 -2.492694 20.929342 0.000003 -0.000002 -0.000003 0.576089 -2.775886 23.444534 0.460477 -2.492694 20.929346 -0.000002 0.000000 0.000001 0.000005 0.000000 -0.000001 0.000003 -0.000001 0.000001 0.000003 -0.000001 0.000001 0.000003 -0.000001 0.000001 0.000003 -0.000001 0.000001 0.000003 -0.000001 0.000001 0.000002 -0.000001 0.000000 0.000001 -0.000002 0.000000 0.000001 -0.000002 0.000000 -0.000000 -0.000001 -0.000002 -0.000001 -0.000000 -0.000001 
